<svg version="1.2" xmlns="http://www.w3.org/2000/svg" viewBox="0 0 2048 320" width="2048" height="320">
	<defs>
		<radialGradient id="g1" cx="0" cy="0" r="1" gradientUnits="userSpaceOnUse" gradientTransform="matrix(110.181,0,0,110.181,552.827,172.173)">
			<stop offset=".111" stop-color="#ffffff"/>
			<stop offset=".462" stop-color="#fff799"/>
			<stop offset=".821" stop-color="#ffe800"/>
		</radialGradient>
		<linearGradient id="g2" x2="1" gradientUnits="userSpaceOnUse" gradientTransform="matrix(0,303,-279.655,0,552.827,9)">
			<stop offset="0" stop-color="#80ff00"/>
			<stop offset=".514" stop-color="#00ca0d"/>
			<stop offset="1" stop-color="#007007"/>
		</linearGradient>
	</defs>
	<style>
		.s0 { fill: #00a4ff } 
		.s1 { fill: url(#g1) } 
		.s2 { fill: #003c04 } 
		.s3 { fill: url(#g2);stroke: #000000;stroke-miterlimit:10;stroke-width: .4 } 
		.s4 { fill: #ffe800 } 
		.s5 { fill: #ffffff } 
	</style>
	<path fill-rule="evenodd" class="s0" d="m0 0h2048v320h-2048z"/>
	<path fill-rule="evenodd" class="s1" d="m552.83 282.35c-60.93 0-110.18-49.25-110.18-110.18 0-60.93 49.25-110.18 110.18-110.18 60.93 0 110.18 49.25 110.18 110.18 0 60.93-49.25 110.18-110.18 110.18z"/>
	<path class="s2" d="m543.68 183.06c0 0 5.72-7.48 5.72-10.76 0-6.21 0-26.92 0-26.92h7.11c0 0 0 20.99 0 27.17 0 3.19 5.46 10.51 5.46 10.51l-8.89-6.96z"/>
	<path class="s3" d="m413 172.17c0-57.2 34.35-106.39 83.55-128.04 8.41-23.61 31.84-35.13 56.28-35.13 32.65 0 65.14 27.13 59.12 63.04-5.75 34.34-39.59 78.76-59.12 78.76-9.24 0-23.18-11.09-35.23-26.51-37.01-31.32-62.04 10.74-63.95 53.62-2.44 54.87 67.26 76.05 104.99 74.92 113.58-3.42 126.72-123.47 125.94-127.6 5.23 14.67 8.07 30.47 8.07 46.94 0 77.23-62.6 139.83-139.82 139.83-77.23 0-139.83-62.6-139.83-139.83z"/>
	<path class="s4" d="m577.55 90c-4.47-7.5 16.19-27.15 16.19-27.15 0 0 4.47 19.65 0 27.15-4.47 7.49-11.72 7.49-16.19 0z"/>
	<path class="s4" d="m512.23 90c-4.47-7.5 0-27.15 0-27.15 0 0 20.66 19.65 16.18 27.15-4.47 7.49-11.71 7.49-16.18 0z"/>
	<path id="Cobra Browser" class="s5" aria-label="Cobra Browser"  d="m807 213.5q-11.6 0-19.5-4.7-7.8-4.7-11.9-16.5-3.9-11.8-3.9-32.8 0-21 3.9-32.7 3.9-11.8 11.4-16.5 7.7-4.8 18.5-4.8 7.9 0 14.2 0.9 6.5 0.9 9.8 2.1v8.3l-18-0.1q-6.3 0-11.3 3.8-4.9 3.6-7.8 12.9-2.7 9.2-2.7 26.1 0 16.8 2.9 26.1 2.8 9.3 8.1 13.1 5.2 3.5 12.3 3.5h18v8.3q-3.3 1.1-9.8 2.1-6.3 0.9-14.2 0.9zm-4 0q-11.5 0-19.5-4.7-7.8-4.7-11.8-16.5-3.9-11.8-3.9-32.8 0-21 3.9-32.7 3.9-11.9 11.4-16.5 7.6-4.8 18.4-4.8 8 0 14.3 0.9 6.4 0.9 9.7 2.1v8.2h-18q-6.3 0-11.2 3.8-5 3.6-7.8 12.9-2.7 9.2-2.7 26.1 0 16.8 2.8 26.1 2.9 9.3 8.1 13 5.3 3.6 12.3 3.6h18v8.3q-3.3 1.1-9.7 2.1-6.3 0.9-14.3 0.9zm69 0q-9.8 0-16.5-3.8-6.6-3.9-10.1-12.4-3.4-8.6-3.4-22.8 0-14.3 3.4-22.8 3.5-8.6 10.1-12.3 6.7-3.9 16.5-3.9 9.7 0 16.3 3.9 6.8 3.8 10.2 12.3 3.5 8.5 3.5 22.8 0 14.2-3.5 22.8-3.4 8.5-10.2 12.4-6.6 3.8-16.3 3.8zm0-9.8q3.4 0 6.1-2.4 2.7-2.5 4.2-8.8 1.7-6.4 1.7-18 0-11.7-1.7-18-1.5-6.3-4.2-8.7-2.7-2.6-6.1-2.6-3.3 0-6.2 2.6-2.7 2.4-4.3 8.7-1.5 6.3-1.5 18 0 11.6 1.5 18 1.6 6.3 4.3 8.8 2.9 2.4 6.2 2.4zm-4 9.8q-9.7 0-16.5-3.8-6.6-3.9-10-12.4-3.5-8.6-3.5-22.8 0-14.3 3.5-22.8 3.4-8.6 10-12.3 6.8-3.9 16.5-3.9 9.8 0 16.4 3.9 6.7 3.8 10.2 12.3 3.4 8.5 3.4 22.8 0 14.2-3.4 22.8-3.5 8.5-10.2 12.4-6.6 3.8-16.4 3.8zm0-9.8q3.5 0 6.2-2.4 2.7-2.5 4.2-8.8 1.6-6.4 1.6-18 0-11.7-1.6-18-1.5-6.3-4.2-8.7-2.7-2.6-6.2-2.6-3.3 0-6.1 2.6-2.7 2.4-4.4 8.7-1.5 6.3-1.5 18 0 11.6 1.5 18 1.7 6.3 4.4 8.8 2.8 2.4 6.1 2.4zm79.2 9.8q-7.8 0-13.5-1.1-5.5-1.2-11.2-3.4v-102h18v32.2q2.4-1.6 5.5-2.6 3.3-1.1 7.2-1.1 8.3 0 14.3 3.9 6.1 3.7 9.4 12.3 3.3 8.5 3.3 22.8 0 14.2-3.6 22.8-3.4 8.5-10.8 12.4-7.3 3.8-18.6 3.8zm-6.7-64.5v54h6.7q4.5 0 7.8-2.4 3.5-2.6 5.3-8.7 1.9-6.2 1.9-17.4 0-11.3-1.8-17.4-1.8-6.3-4.9-8.7-3-2.4-6.8-2.4-2.8 0-4.9 0.9-2.1 0.9-3.3 2.1zm2.8 64.5q-7.8 0-13.5-1.1-5.6-1.2-11.3-3.4v-102h18v32.2q2.4-1.6 5.6-2.7 3.3-1 7.2-1 8.2 0 14.2 3.9 6.2 3.7 9.5 12.3 3.3 8.5 3.3 22.8 0 14.2-3.6 22.8-3.5 8.5-10.8 12.4-7.4 3.8-18.6 3.8zm-6.8-64.5v54h6.8q4.5 0 7.8-2.4 3.4-2.6 5.2-8.7 2-6.2 2-17.4 0-11.3-1.8-17.4-1.8-6.3-5-8.7-3-2.4-6.7-2.4-2.9 0-5 0.9-2.1 0.9-3.3 2.1zm81.2 63h-18v-75h12.8l2.2 6h0.8q2.4-2.3 6.4-4.1 4.1-1.9 10.8-1.9h9.8v12.7h-16.5q-2.9 0-5 0.9-2.1 0.9-3.3 2.1zm-3.9 0h-18v-75h12.7l2.3 6h0.7q2.4-2.2 6.5-4 4-2 10.8-2h9.7v12.8h-16.5q-2.8 0-4.9 0.9-2.1 0.9-3.3 2.1zm62.4 1.5q-6.3 0-11.7-2-5.2-1.9-8.4-7-3.1-5.3-3.1-15 0-9.8 3.1-14.9 3.3-5.2 8.9-7.2 5.7-1.9 12.7-1.9 3.5 0 6.6 0.4 3.3 0.5 6.2 1.1v-6q0-9-4.2-12-4.2-3-11.6-3h-15v-7.5q3.5-1.2 8.4-2.1 5.1-0.9 9.6-0.9 10.2 0 17 2.1 6.9 1.9 10.3 7.5 3.5 5.4 3.5 15.9v51h-12.8l-2.2-4.5h-0.8q-2.4 2.2-6.4 4.2-3.9 1.8-10.1 1.8zm6-10.5q2.9 0 5-0.9 2.2-1.1 3.3-2.1v-24h-8.3q-2.5 0-5.2 1.2-2.6 1.2-4.4 4.2-1.6 2.8-1.6 8.1 0 5.2 1.6 8.2 1.8 2.9 4.4 4.1 2.7 1.2 5.2 1.2zm-9.9 10.5q-6.3 0-11.7-2-5.3-1.9-8.4-7-3.2-5.3-3.2-15 0-9.8 3.2-14.9 3.3-5.2 8.8-7.2 5.7-1.9 12.8-1.9 3.4 0 6.6 0.4 3.3 0.5 6.1 1.1v-6q0-9-4.2-12-4.2-3-11.5-3h-15v-7.5q3.4-1.2 8.4-2.1 5.1-0.9 9.6-0.9 10.2 0 16.9 2.1 6.9 1.9 10.4 7.5 3.4 5.4 3.4 15.9v51h-12.7l-2.3-4.5h-0.7q-2.4 2.2-6.5 4.2-3.9 1.8-10 1.8zm6-10.5q2.8 0 4.9-0.9 2.3-1.1 3.3-2.1v-24h-8.2q-2.6 0-5.3 1.2-2.5 1.2-4.3 4.2-1.7 2.8-1.7 8.1 0 5.2 1.7 8.2 1.8 2.9 4.3 4.1 2.7 1.2 5.3 1.2zm109.2 10.5q-6.8 0-12.6-0.6-5.7-0.8-11.4-2.4v-102q5.7-1.7 11.4-2.3 5.8-0.7 12.6-0.7 15.7 0 22.8 6.9 7.2 6.7 7.2 20.8 0 6.8-2.7 12.6-2.6 5.9-9.3 9.6v0.6q9 2.6 12.7 9.9 3.8 7.4 3.8 17.6 0 15.7-7.7 22.9-7.6 7.1-26.8 7.1zm-10.5-51.8v42h10.5q11.3 0 16-4.6 5-4.8 5-15.6 0-11.9-5-16.8-4.8-5-16-5zm0-46.5v36.8h9q9 0 13.5-4.5 4.5-4.7 4.5-14.3 0-9-4.5-13.5-4.5-4.5-13.5-4.5zm79.3 96.8h-13.5v-75h11.4l0.7 6h0.8q2.6-2.3 7.1-4.1 4.7-1.9 11.5-1.9h7.5v11.2h-15q-2.9 0-5.6 0.8-2.7 0.6-4.9 2.2zm63.2 1.5q-9 0-15.2-3.6-6.1-3.7-9.4-12.3-3.2-8.5-3.2-23.1 0-14.7 3.2-23.1 3.3-8.5 9.4-12.1 6.2-3.8 15.2-3.8 9 0 15.2 3.8 6.3 3.6 9.4 12.1 3.1 8.4 3.1 23.1 0 14.6-3.1 23.1-3.1 8.6-9.4 12.3-6.2 3.6-15.2 3.6zm0-8.2q3.7 0 6.9-2.7 3.3-2.7 5.3-9.3 2-6.8 2-18.8 0-12-2-18.6-2-6.7-5.3-9.4-3.2-2.7-6.9-2.7-3.8 0-7 2.7-3.2 2.7-5.3 9.4-2 6.6-2 18.6 0 12 2 18.8 2.1 6.6 5.3 9.3 3.2 2.7 7 2.7zm69.8 6.7h-16.5l-13.5-75h12.7l10.3 57h0.8l13.7-42h12l13.6 42h0.8l10.3-57h12.8l-13.5 75h-16.5l-13.3-40.5h-0.5zm89.7 1.5q-4.5 0-9.6-0.9-4.9-1-8.4-2.1v-6h15q10.2 0 14.8-2.5 4.7-2.7 4.7-9.5 0-4.5-2.5-7.2-2.6-2.7-6.7-4.5-3.8-1.9-8.5-3.6-4.5-1.8-8.5-4.3-4-2.7-6.5-6.9-2.5-4.2-2.5-11 0-11.2 6.7-15.3 6.8-4.2 20.3-4.2 4.5 0 9.5 0.9 5.2 0.9 8.5 2.1v6h-15q-7.8 0-12.2 2.4-4.3 2.4-4.3 8.1 0 4.5 2.5 7.2 2.5 2.7 6.5 4.7 4 1.8 8.5 3.6 4.7 1.6 8.5 4.3 4.1 2.6 6.7 6.8 2.5 4.2 2.5 10.9 0 8.3-3.2 12.9-3.1 4.5-9.7 6.3-6.6 1.8-17.1 1.8zm76.3 0q-11.3 0-18.2-3.4-6.9-3.6-10.2-12-3.1-8.6-3.1-23.6 0-15 3-23.4 3-8.5 8.8-11.9 5.9-3.7 14.4-3.7 8.7 0 14.4 3.7 5.9 3.4 8.9 11.9 3 8.4 3 23.4v4.5h-39q0 14.6 4.7 20.1 5 5.4 16.3 5.4h15v6q-3.3 1.1-8.5 2.1-5 0.9-9.5 0.9zm-18-43.5h25.5q0-10.2-1.8-15.9-1.8-5.7-4.7-7.9-2.8-2.4-6.3-2.4-3.3 0-6.3 2.4-2.9 2.2-4.7 7.9-1.7 5.7-1.7 15.9zm72 42h-13.5v-75h11.4l0.7 6h0.8q2.6-2.2 7.1-4 4.7-2 11.5-2h7.5v11.3h-15q-2.9 0-5.6 0.7-2.7 0.6-4.9 2.3z"/>
</svg>